HIERARCHY
ROOT Hips
{
 OFFSET 0.000000 0.000000 0.000000
 CHANNELS 6 Xposition Yposition Zposition Yrotation Xrotation Zrotation
 JOINT Chest
 {
  OFFSET 0.000000 9.857222 0.000240
  CHANNELS 3 Yrotation Xrotation Zrotation
  JOINT Chest2
  {
   OFFSET 0.000000 10.876940 -0.000436
   CHANNELS 3 Yrotation Xrotation Zrotation
   JOINT Chest3
   {
    OFFSET 0.000000 9.827798 0.000000
    CHANNELS 3 Yrotation Xrotation Zrotation
    JOINT Chest4
    {
     OFFSET 0.000000 9.827798 0.000000
     CHANNELS 3 Yrotation Xrotation Zrotation
     JOINT Neck
     {
      OFFSET 0.000000 13.831992 0.000000
      CHANNELS 3 Yrotation Xrotation Zrotation
      JOINT Head
      {
       OFFSET 0.000000 9.147643 -0.001036
       CHANNELS 3 Yrotation Xrotation Zrotation
       End Site
       {
        OFFSET 0.000000 17.515799 -0.000541
       }
      }
     }
     JOINT RightCollar
     {
      OFFSET -3.001579 7.717577 0.000000
      CHANNELS 3 Yrotation Xrotation Zrotation
      JOINT RightShoulder
      {
       OFFSET -14.002642 0.000000 0.000000
       CHANNELS 3 Yrotation Xrotation Zrotation
       JOINT RightElbow
       {
        OFFSET -30.053852 0.000000 0.000000
        CHANNELS 3 Yrotation Xrotation Zrotation
        JOINT RightWrist
        {
         OFFSET -24.564923 0.000000 -0.000000
         CHANNELS 3 Yrotation Xrotation Zrotation
         End Site
         {
          OFFSET -18.334355 0.000000 0.000000
         }
        }
       }
      }
     }
     JOINT LeftCollar
     {
      OFFSET 3.001579 7.717577 0.000000
      CHANNELS 3 Yrotation Xrotation Zrotation
      JOINT LeftShoulder
      {
       OFFSET 14.002642 0.000000 0.000000
       CHANNELS 3 Yrotation Xrotation Zrotation
       JOINT LeftElbow
       {
        OFFSET 30.053852 0.000000 0.000000
        CHANNELS 3 Yrotation Xrotation Zrotation
        JOINT LeftWrist
        {
         OFFSET 24.564923 0.000000 -0.000000
         CHANNELS 3 Yrotation Xrotation Zrotation
         End Site
         {
          OFFSET 18.334355 0.000000 0.000000
         }
        }
       }
      }
     }
    }
   }
  }
 }
 JOINT RightHip
 {
  OFFSET -8.003235 -0.001175 -0.000120
  CHANNELS 3 Yrotation Xrotation Zrotation
  JOINT RightKnee
  {
   OFFSET 0.000000 -41.759727 0.000113
   CHANNELS 3 Yrotation Xrotation Zrotation
   JOINT RightAnkle
   {
    OFFSET 0.000000 -40.728748 0.000159
    CHANNELS 3 Yrotation Xrotation Zrotation
    JOINT RightToe
    {
     OFFSET 0.000000 -6.515296 14.732841
     CHANNELS 3 Yrotation Xrotation Zrotation
     End Site
     {
      OFFSET 0.000000 -1.502839 6.412115
     }
    }
   }
  }
 }
 JOINT LeftHip
 {
  OFFSET 8.003235 -0.001175 -0.000120
  CHANNELS 3 Yrotation Xrotation Zrotation
  JOINT LeftKnee
  {
   OFFSET 0.000000 -41.759727 0.000113
   CHANNELS 3 Yrotation Xrotation Zrotation
   JOINT LeftAnkle
   {
    OFFSET 0.000000 -40.728748 0.000159
    CHANNELS 3 Yrotation Xrotation Zrotation
    JOINT LeftToe
    {
     OFFSET 0.000000 -6.515296 14.732841
     CHANNELS 3 Yrotation Xrotation Zrotation
     End Site
     {
      OFFSET 0.000000 -1.502839 6.412115
     }
    }
   }
  }
 }
}
MOTION
Frames: 15
Frame Time: 0.016667
0.000000 88.822259 0.000000 0.000000 -5.826342 0.000000 0.000000 11.116423 0.000000 0.000000 -5.290081 0.000000 0.000000 0.000000 0.000000 0.000000 0.000000 0.000000 0.000000 12.665069 0.000000 0.000000 0.575450 0.000000 0.000000 0.000000 0.000000 0.000000 0.000000 0.000000 2.337306 0.000000 0.000000 -2.337306 0.000000 0.000000 0.000000 0.000000 0.000000 0.000000 0.000000 0.000000 -2.337306 0.000000 0.000000 2.337306 0.000000 0.000000 0.000000 8.578828 0.000000 0.000000 1.905768 0.000000 0.000000 -4.658254 0.000000 0.000000 0.000000 0.000000 0.000000 8.578828 0.000000 0.000000 1.905768 0.000000 0.000000 -4.658254 0.000000 0.000000 0.000000 0.000000
20.049207 90.597302 15.556655 -33.416981 -17.034724 -1.238440 1.208046 8.194399 0.894274 0.487684 3.670236 0.403821 0.487684 3.670236 0.403821 0.363210 2.753002 0.299830 -6.782699 21.804243 1.665223 -12.735866 4.742763 4.899187 7.718970 4.086338 10.231914 47.762822 -11.945663 76.472952 11.705903 3.802339 4.314118 -0.648882 -3.024276 -3.725414 -19.055920 10.247607 -11.976272 -34.845032 2.947757 -59.857068 -24.529343 -43.351285 1.429056 6.075870 5.177221 2.673048 -2.209185 26.455739 -5.139688 -1.045531 -4.562238 5.106562 -0.659515 -4.596629 0.476452 -0.210521 0.060586 -0.085693 0.238464 16.619867 2.546656 0.998817 3.647625 -1.842058 1.710980 -3.829228 0.352581 0.024384 0.067514 0.026153
20.052641 90.598979 15.563539 -33.460749 -17.006046 -1.251904 1.202559 8.186421 0.901326 0.486765 3.664403 0.406332 0.486765 3.664403 0.406332 0.362510 2.748630 0.301723 -6.776852 21.802784 1.663565 -12.724939 4.739291 4.894761 7.733394 4.118377 10.198908 46.951020 -11.914834 76.143592 12.484961 4.342571 4.908876 -0.691504 -3.065821 -3.739278 -19.022863 10.238374 -11.974350 -34.832915 2.985228 -59.872287 -24.670727 -43.609249 1.477717 6.129025 5.166542 2.637913 -2.155693 26.423096 -5.107725 -1.042589 -4.555685 5.101423 -0.680113 -4.597169 0.476226 -0.204326 0.059417 -0.082793 0.253955 16.591727 2.556003 0.993043 3.659959 -1.836275 1.750362 -3.839837 0.347081 0.024370 0.065633 0.027195
20.049588 90.602418 15.568626 -33.483057 -16.977406 -1.273012 1.177182 8.183487 0.910350 0.484022 3.654685 0.407980 0.484022 3.654685 0.407980 0.360451 2.741340 0.302983 -6.768728 21.798733 1.666029 -12.711216 4.731292 4.897409 7.745543 4.171493 10.159466 46.076943 -11.923006 75.863329 13.437034 4.713907 5.452353 -0.758235 -3.210364 -3.709474 -18.983183 10.179118 -11.988037 -34.784746 3.160445 -59.867584 -24.925747 -44.042739 1.519787 6.171241 5.189126 2.605148 -2.133707 26.391074 -5.078082 -1.037211 -4.551086 5.097246 -0.716700 -4.579770 0.464442 -0.169615 0.042259 -0.067950 0.245672 16.568153 2.581127 0.984931 3.662979 -1.851029 1.758079 -3.834389 0.348796 0.026822 0.053171 0.028181
20.047075 90.604480 15.569906 -33.523673 -16.914196 -1.277024 1.166679 8.152402 0.904540 0.480334 3.640521 0.405880 0.480334 3.640521 0.405880 0.357709 2.730713 0.301443 -6.760854 21.798104 1.677530 -12.700213 4.730718 4.916070 7.771895 4.217423 10.126723 45.188880 -11.944904 75.702039 14.519930 4.839157 5.870058 -0.808654 -3.422703 -3.639386 -18.940009 10.107856 -11.994895 -34.640655 3.441916 -59.845923 -25.327910 -44.466156 1.575848 6.198109 5.198518 2.585501 -2.098501 26.323382 -5.064934 -1.034829 -4.547880 5.099479 -0.694807 -4.578298 0.464543 -0.175105 0.042634 -0.070449 0.252605 16.507996 2.595147 0.975975 3.667563 -1.866863 1.769088 -3.837126 0.352031 0.028546 0.048951 0.028041
20.041829 90.606007 15.572689 -33.551812 -16.849903 -1.287108 1.143881 8.131814 0.892433 0.473655 3.627254 0.398303 0.473655 3.627254 0.398303 0.352756 2.720753 0.295813 -6.750417 21.802847 1.696489 -12.686271 4.740717 4.946940 7.802734 4.189796 10.100597 44.487943 -11.900245 75.798539 15.668377 4.620776 6.011066 -0.827512 -3.637233 -3.572353 -18.901492 10.031966 -11.963207 -34.434449 3.694845 -59.876420 -25.792681 -44.792425 1.696913 6.211175 5.196459 2.572072 -2.086190 26.265333 -5.039855 -1.023934 -4.556953 5.090611 -0.704756 -4.580023 0.456160 -0.157768 0.047366 -0.064456 0.250403 16.450052 2.604359 0.983149 3.669060 -1.863989 1.799130 -3.843810 0.347636 0.025320 0.049124 0.024213
20.035551 90.607464 15.579949 -33.576689 -16.784872 -1.294733 1.117523 8.114654 0.873530 0.464820 3.615755 0.388216 0.464820 3.615755 0.388216 0.346200 2.712115 0.288312 -6.744424 21.814398 1.710839 -12.678615 4.763199 4.970022 7.836323 4.150714 10.077128 44.429208 -11.715081 75.939460 16.792563 3.785218 5.821555 -0.823355 -3.830393 -3.544563 -18.889302 10.004635 -11.915271 -34.254675 3.832453 -59.951379 -26.240944 -45.007646 1.862641 6.223867 5.209681 2.567994 -2.093559 26.208699 -5.030102 -1.019588 -4.565258 5.089436 -0.691676 -4.581119 0.446876 -0.140998 0.049324 -0.058544 0.281413 16.396399 2.611890 0.971625 3.662289 -1.848553 1.793249 -3.848070 0.341551 0.021284 0.049327 0.020818
20.030613 90.608740 15.588810 -33.598114 -16.692425 -1.295835 1.092114 8.092800 0.845786 0.455425 3.604442 0.375271 0.455425 3.604442 0.375271 0.339241 2.703614 0.278672 -6.746610 21.821691 1.722245 -12.685215 4.778261 4.990438 7.847971 4.083057 10.050207 45.128690 -11.402144 76.086648 17.768818 2.378566 5.234332 -0.791825 -3.975852 -3.548818 -18.884953 9.959305 -11.852484 -34.117762 3.944194 -60.067775 -26.660836 -45.003857 2.013921 6.237028 5.162734 2.519820 -2.137475 26.126587 -5.045856 -0.996508 -4.580688 5.094886 -0.683544 -4.577159 0.443929 -0.133926 0.049889 -0.058049 0.327654 16.316028 2.622117 0.951901 3.652676 -1.842004 1.767423 -3.849501 0.340321 0.019709 0.048315 0.018433
20.025845 90.608645 15.596348 -33.614276 -16.550082 -1.301753 1.065470 8.050629 0.817234 0.446136 3.582805 0.361266 0.446136 3.582805 0.361266 0.332373 2.687370 0.268243 -6.757723 21.829907 1.730760 -12.707084 4.795576 5.007965 7.834105 3.994581 10.014667 46.226975 -11.115264 76.389172 18.494276 0.838469 4.323384 -0.751698 -4.092489 -3.581100 -18.876965 9.906677 -11.800254 -33.997633 4.103651 -60.153461 -27.054834 -44.873498 2.066646 6.255649 5.144459 2.413124 -2.186533 25.994825 -5.052096 -0.954335 -4.598482 5.091057 -0.692017 -4.575409 0.440770 -0.120585 0.053390 -0.053489 0.346977 16.184235 2.630221 0.942711 3.645722 -1.834974 1.788877 -3.855520 0.335377 0.018186 0.051341 0.015918
20.018996 90.607002 15.600908 -33.625612 -16.367085 -1.313692 1.033518 7.992583 0.788735 0.439116 3.550305 0.345932 0.439116 3.550305 0.345932 0.327220 2.662980 0.256812 -6.775323 21.837290 1.741330 -12.741297 4.812245 5.031029 7.750118 3.878963 9.982601 46.966218 -11.108429 76.990670 18.894559 -0.066836 3.425412 -0.712415 -4.178433 -3.638353 -18.851728 9.837807 -11.767903 -33.898747 4.326745 -60.189151 -27.389084 -44.642166 1.996120 6.278880 5.151447 2.261332 -2.217160 25.821156 -5.037384 -0.917961 -4.610299 5.080098 -0.735090 -4.566654 0.431370 -0.088640 0.046061 -0.039418 0.364721 16.010024 2.644354 0.930761 3.639050 -1.826223 1.773241 -3.850027 0.329949 0.017212 0.044617 0.014092
20.013475 90.603247 15.600253 -33.663584 -16.141583 -1.306034 1.029359 7.905272 0.741359 0.436390 3.510686 0.327454 0.436390 3.510686 0.327454 0.325307 2.633250 0.243004 -6.797145 21.846223 1.760005 -12.785264 4.833184 5.069677 7.637876 3.613874 10.047514 47.102166 -11.118619 77.658371 19.099012 -0.368608 2.848012 -0.659225 -4.242818 -3.689338 -18.811228 9.787250 -11.748540 -33.856844 4.569263 -60.186559 -27.649726 -44.309819 1.835039 6.298782 5.128936 2.107603 -2.183547 25.596434 -5.021413 -0.914105 -4.612149 5.077759 -0.714565 -4.596416 0.436913 -0.112760 0.076999 -0.049078 0.396873 15.788050 2.650625 0.931847 3.642674 -1.827383 1.780797 -3.878606 0.325290 0.018322 0.066626 0.013232
20.005462 90.601050 15.598933 -33.679712 -15.974286 -1.300054 1.022866 7.839875 0.697379 0.432565 3.483411 0.307914 0.432565 3.483411 0.307914 0.322567 2.612779 0.228396 -6.818788 21.856500 1.781932 -12.829702 4.857005 5.113989 7.594506 3.337103 10.214500 47.107239 -10.939032 77.993469 19.256789 -0.707043 2.527128 -0.591855 -4.295073 -3.667098 -18.756951 9.747434 -11.738579 -33.876314 4.853666 -60.139231 -27.830569 -44.003978 1.631156 6.315463 5.109977 1.950640 -2.132022 25.426257 -5.000342 -0.939936 -4.600721 5.082730 -0.711143 -4.610559 0.433076 -0.120494 0.085227 -0.051695 0.412984 15.620826 2.654232 0.927856 3.648402 -1.828700 1.762686 -3.884879 0.322731 0.019303 0.068441 0.012121
19.995248 90.605640 15.600709 -33.680438 -15.899388 -1.291872 1.017711 7.806505 0.664374 0.424600 3.478806 0.291059 0.424600 3.478806 0.291059 0.316694 2.609309 0.215808 -6.838937 21.861811 1.791570 -12.868392 4.870023 5.136250 7.457386 3.273368 10.327136 47.150074 -10.982738 78.068335 19.210044 -0.960241 2.409490 -0.566290 -4.319021 -3.580286 -18.665084 9.730089 -11.746591 -33.906838 5.100844 -60.053804 -27.926487 -43.679566 1.398018 6.333687 5.054623 1.787387 -2.087919 25.351094 -4.983326 -0.962773 -4.594921 5.080695 -0.726462 -4.599507 0.431732 -0.126588 0.071027 -0.053300 0.418095 15.552325 2.656996 0.920030 3.641777 -1.834081 1.777529 -3.867951 0.318836 0.019917 0.053412 0.010588
19.978669 90.614738 15.605594 -33.674065 -15.854771 -1.279856 1.000407 7.781831 0.638981 0.414170 3.476235 0.278572 0.414170 3.476235 0.278572 0.308946 2.607367 0.206506 -6.851197 21.863415 1.784708 -12.888539 4.873394 5.127029 7.201453 3.015566 10.372200 46.952645 -11.141453 78.302272 18.809905 -0.891133 2.519179 -0.558684 -4.329342 -3.480475 -18.565100 9.703494 -11.798723 -33.838846 5.355035 -59.917863 -27.963199 -43.419433 1.049332 6.362550 5.024050 1.675849 -2.081888 25.316744 -4.985820 -0.960585 -4.602173 5.081175 -0.727432 -4.579017 0.427891 -0.130221 0.047579 -0.056024 0.427157 15.522353 2.655524 0.911092 3.623424 -1.835084 1.759725 -3.836642 0.315975 0.021115 0.027935 0.008008
19.962718 90.620421 15.616802 -33.653643 -15.808188 -1.259356 0.966855 7.746808 0.610829 0.400669 3.462996 0.271034 0.400669 3.462996 0.271034 0.298873 2.597427 0.200941 -6.851930 21.874346 1.757858 -12.881696 4.890433 5.077732 6.974313 2.829733 10.396078 46.660240 -11.386645 78.545037 18.246049 -0.764141 2.639356 -0.576395 -4.298715 -3.358331 -18.472147 9.670259 -11.870664 -33.574952 5.578315 -59.814944 -27.987008 -43.098087 0.645291 6.381176 4.965800 1.568325 -2.150655 25.294256 -5.029326 -0.905322 -4.631413 5.076852 -0.723651 -4.563893 0.437811 -0.147100 0.033087 -0.064585 0.447065 15.499428 2.641530 0.898847 3.590387 -1.822811 1.742812 -3.805263 0.309264 0.021471 0.008456 0.004163
